<?xml version="1.0" encoding="UTF-8"?>
<!DOCTYPE svg PUBLIC "-//W3C//DTD SVG 1.1//EN" "http://www.w3.org/Graphics/SVG/1.1/DTD/svg11.dtd">
<!-- Creator: CorelDRAW 2017 -->
<svg xmlns="http://www.w3.org/2000/svg" xml:space="preserve" width="1181px" height="257px" version="1.1" style="shape-rendering:geometricPrecision; text-rendering:geometricPrecision; image-rendering:optimizeQuality; fill-rule:evenodd; clip-rule:evenodd"
viewBox="0 0 1181 256.98"
 xmlns:xlink="http://www.w3.org/1999/xlink">
 <defs>
  <style type="text/css">
   <![CDATA[
    .fil0 {fill:#D5222B;fill-rule:nonzero}
   ]]>
  </style>
 </defs>
 <g id="Слой_x0020_1">
  <metadata id="CorelCorpID_0Corel-Layer"/>
  <path class="fil0" d="M0 198.22c0,-37.47 27.3,-56.24 81.94,-56.24 12.82,0 25.63,1.23 38.46,3.62l0 -14.23c0,-16.86 -12.21,-25.33 -36.49,-25.33 -20.62,0 -43.49,3.01 -68.64,8.96l0 -37.72c25.15,-5.95 48.02,-8.96 68.64,-8.96 56.05,0 84.08,20.74 84.08,62.13l0 126.53 -27.66 0 -16.93 -16.87c-16.38,11.23 -34.47,16.87 -54.22,16.87 -46.12,0 -69.18,-19.56 -69.18,-58.76zm120.4 -20.3c-12.03,-2.39 -24.84,-3.62 -38.46,-3.62 -22.87,0 -34.34,7.79 -34.34,23.37 0,16.81 9.56,25.15 28.76,25.15 15.82,0 30.48,-4.91 44.04,-14.72l0 -30.18zm140.14 35.39c10.85,3.5 23.49,5.21 37.9,5.21 28.7,0 43.12,-20.3 43.12,-60.9 0,-33.18 -12.4,-49.8 -37.23,-49.8 -16.01,0 -30.67,3.25 -43.79,9.75l0 95.74zm-47.66 -213.31l47.66 0 0 82.67c14.23,-9.56 30.11,-14.35 47.59,-14.35 53.67,0 80.47,30.18 80.47,90.53 0,65.44 -30.67,98.13 -92.12,98.13 -25.88,0 -53.73,-2.58 -83.6,-7.73l0 -249.25zm259.31 0l0 37.78 -47.65 0 0 -37.78 47.65 0zm0 68.32l0 188.66 -47.65 0 0 -188.66 47.65 0zm35.94 129.9c0,-37.47 27.3,-56.24 81.94,-56.24 12.82,0 25.64,1.23 38.46,3.62l0 -14.23c0,-16.86 -12.21,-25.33 -36.49,-25.33 -20.61,0 -43.49,3.01 -68.63,8.96l0 -37.72c25.14,-5.95 48.02,-8.96 68.63,-8.96 56.05,0 84.08,20.74 84.08,62.13l0 126.53 -27.66 0 -16.93 -16.87c-16.38,11.23 -34.46,16.87 -54.21,16.87 -46.13,0 -69.19,-19.56 -69.19,-58.76zm120.4 -20.3c-12.02,-2.39 -24.84,-3.62 -38.46,-3.62 -22.87,0 -34.34,7.79 -34.34,23.37 0,16.81 9.56,25.15 28.76,25.15 15.83,0 30.48,-4.91 44.04,-14.72l0 -30.18zm89.79 -140.14l35.26 0 7.18 30.54 47.41 0 0 37.72 -42.2 0 0 86.79c0,17.6 7.61,26.43 22.82,26.43l19.38 0 0 37.72 -42.38 0c-31.65,0 -47.47,-16.93 -47.47,-50.84l0 -168.36zm201.78 30.54c57.28,0 85.92,29.2 85.92,87.65 0,7.79 -0.55,15.57 -1.65,23.36l-125.24 0c0,26.62 19.5,39.93 58.57,39.93 19.07,0 38.09,-1.84 57.16,-5.4l0 37.72c-16.68,3.62 -36.92,5.4 -60.72,5.4 -68.44,0 -102.61,-32.14 -102.61,-96.48 0,-61.45 29.51,-92.18 88.57,-92.18zm-40.97 77.95l80.53 0 0 -1.4c0,-26.13 -13.19,-39.19 -39.56,-39.19 -25.15,0 -38.82,13.55 -40.97,40.59zm301.87 105.31c-15.58,3.62 -31.77,5.4 -48.51,5.4 -67.1,0 -100.65,-32.63 -100.65,-97.95 0,-60.47 33.55,-90.71 100.65,-90.71 16.74,0 32.93,1.78 48.51,5.4l0 37.72c-15.58,-3.62 -30.54,-5.4 -44.95,-5.4 -37.72,0 -56.61,17.66 -56.61,52.99 0,40.17 18.89,60.23 56.61,60.23 14.41,0 29.37,-1.84 44.95,-5.4l0 37.72z"/>
 </g>
</svg>
