<?xml version="1.0" encoding="utf-8"?>
<svg xmlns="http://www.w3.org/2000/svg"
	xmlns:xlink="http://www.w3.org/1999/xlink"
	width="32px" height="32px" viewBox="0 0 32 32">
<circle cx="15.50" cy="15.50" r="15.50" fill="rgb(255,255,255)" opacity="0.15"/><path fillRule="evenodd" d="M 12.12 16.06C 12.12 16.06 13.91 16.06 13.91 16.06 13.91 16.06 13.91 23.47 13.91 23.47 13.91 23.62 14.03 23.74 14.17 23.74 14.17 23.74 17.2 23.74 17.2 23.74 17.35 23.74 17.47 23.62 17.47 23.47 17.47 23.47 17.47 16.09 17.47 16.09 17.47 16.09 19.52 16.09 19.52 16.09 19.66 16.09 19.77 15.99 19.78 15.86 19.78 15.86 20.1 13.13 20.1 13.13 20.1 13.05 20.08 12.98 20.03 12.92 19.98 12.86 19.91 12.83 19.83 12.83 19.83 12.83 17.47 12.83 17.47 12.83 17.47 12.83 17.47 11.12 17.47 11.12 17.47 10.6 17.74 10.34 18.29 10.34 18.36 10.34 19.83 10.34 19.83 10.34 19.98 10.34 20.1 10.22 20.1 10.08 20.1 10.08 20.1 7.57 20.1 7.57 20.1 7.43 19.98 7.31 19.83 7.31 19.83 7.31 17.7 7.31 17.7 7.31 17.69 7.31 17.65 7.31 17.6 7.31 17.23 7.31 15.95 7.38 14.93 8.32 13.8 9.36 13.96 10.61 14 10.83 14 10.83 14 12.83 14 12.83 14 12.83 12.12 12.83 12.12 12.83 11.98 12.83 11.86 12.95 11.86 13.1 11.86 13.1 11.86 15.79 11.86 15.79 11.86 15.94 11.98 16.06 12.12 16.06Z" fill="rgb(255,255,255)"/></svg>