<?xml version="1.0" encoding="utf-8"?>
<svg xmlns="http://www.w3.org/2000/svg"
	xmlns:xlink="http://www.w3.org/1999/xlink"
	width="32px" height="32px" viewBox="0 0 32 32">
<circle cx="15.50" cy="15.50" r="15.50" fill="rgb(255,255,255)" opacity="0.15"/><path fillRule="evenodd" d="M 19.49 23.81C 19.49 23.81 12.47 23.81 12.47 23.81 10.08 23.81 8.14 21.87 8.14 19.49 8.14 19.49 8.14 12.47 8.14 12.47 8.14 10.08 10.08 8.14 12.47 8.14 12.47 8.14 19.49 8.14 19.49 8.14 21.87 8.14 23.81 10.08 23.81 12.47 23.81 12.47 23.81 19.49 23.81 19.49 23.81 21.87 21.87 23.81 19.49 23.81ZM 22.42 12.47C 22.42 10.85 21.11 9.53 19.49 9.53 19.49 9.53 12.47 9.53 12.47 9.53 10.85 9.53 9.53 10.85 9.53 12.47 9.53 12.47 9.53 19.49 9.53 19.49 9.53 21.11 10.85 22.42 12.47 22.42 12.47 22.42 19.49 22.42 19.49 22.42 21.11 22.42 22.42 21.11 22.42 19.49 22.42 19.49 22.42 12.47 22.42 12.47ZM 20.18 12.8C 19.92 12.8 19.65 12.69 19.46 12.5 19.27 12.31 19.17 12.05 19.17 11.78 19.17 11.51 19.27 11.25 19.46 11.06 19.65 10.87 19.92 10.76 20.18 10.76 20.45 10.76 20.72 10.87 20.91 11.06 21.1 11.25 21.2 11.51 21.2 11.78 21.2 12.05 21.1 12.31 20.91 12.5 20.72 12.69 20.45 12.8 20.18 12.8ZM 15.98 20.01C 13.75 20.01 11.94 18.2 11.94 15.98 11.94 13.75 13.75 11.94 15.98 11.94 18.2 11.94 20.02 13.75 20.02 15.98 20.02 18.2 18.2 20.01 15.98 20.01ZM 15.98 13.33C 14.52 13.33 13.33 14.52 13.33 15.98 13.33 17.44 14.52 18.62 15.98 18.62 17.44 18.62 18.63 17.44 18.63 15.98 18.63 14.52 17.44 13.33 15.98 13.33Z" fill="#5f5f5f"/></svg>