<svg id="Ñëîé_1" data-name="Ñëîé 1" xmlns="http://www.w3.org/2000/svg" viewBox="0 0 501.13 124.66"><defs><style>.cls-1,.cls-2{fill:#fff;}.cls-1{fill-rule:evenodd;}</style></defs><title>luxvisage</title><polygon class="cls-1" points="83.33 107.97 73.42 124.66 500.84 124.66 500.84 107.97 83.33 107.97"/><path class="cls-1" d="M104.59,287.88v64.25c0,1.9-.07,3.91-0.19,6a17.93,17.93,0,0,1-1.06,5.22,7,7,0,0,1-2.41,3.25c-2,1.53-7.1,1.46-8.93,0a7.23,7.23,0,0,1-2.39-3.26,16.64,16.64,0,0,1-1-5.12c-0.09-2.08-.13-4.09-0.13-6V287.88H67.39v64.63a49.24,49.24,0,0,0,2,15.15,25.75,25.75,0,0,0,6.33,10.55c11.15,10.43,31.92,9.52,42.24-1.28a26.55,26.55,0,0,0,5.91-11.61,65.45,65.45,0,0,0,1.68-15.74v-61.7h-21Z" transform="translate(-39.18 -286.4)"/><path class="cls-1" d="M389.33,342.15h-15l7.58-30.66,7.43,30.66h0Zm5.75-54.26H369.39L346.05,384h19.42l5.47-24.42h21.87L398.29,384h19.5Z" transform="translate(-39.18 -286.4)"/><polygon class="cls-1" points="123.55 80.71 127.53 98 147.63 97.39 138.13 51.53 123.55 80.71"/><polygon class="cls-1" points="117.7 18.22 113.71 0.94 93.61 1.55 103.11 47.4 117.7 18.22"/><polygon class="cls-1" points="132.55 1.49 86.65 97.73 108.78 97.73 153.49 1.49 132.55 1.49"/><polygon class="cls-1" points="192.99 1.49 178.97 70.04 165.06 1.49 145.25 1.49 165.94 97.62 192.03 97.62 212.85 1.49 192.99 1.49"/><polygon class="cls-1" points="500.84 98.06 451.92 98.06 451.92 1.89 500.84 1.89 500.84 16.48 471.24 16.48 471.24 40.08 501.13 40.08 500.99 54.67 471.24 54.67 471.24 83.48 500.84 83.48 500.84 98.06"/><path class="cls-1" d="M470.15,384.5v-4.73c-19,12.71-45.58,6.41-48.75-20.86-1.62-13.9-2.79-42.33,3.69-54.76,8.63-16.54,31-21.62,47.55-9.37,5.47,4,8.55,10.56,8.41,19.55l-0.15,9.87H460.82v-13c0-9.08-19.36-9.35-19.36,1.24v51.53c0,9.57,19.36,11.1,19.36,0V351.39H451V337.14h29.85V384.5H470.15Z" transform="translate(-39.18 -286.4)"/><path class="cls-1" d="M342.61,314H321.53v-4.78c0-5-1.86-7.45-5.59-7.45-2.16,0-3.62.59-4.4,1.78s-1.19,3.08-1.19,5.67a11.65,11.65,0,0,0,3,8.37q3,3.14,11.79,10.72t13.17,14.54q4.32,7,4.32,17,0,13.44-6.71,19.95t-20.09,6.51q-11.49,0-19-5t-7.51-16.48v-8.56h21.08v7.35c0,2.76.44,4.68,1.29,5.72s2.29,1.58,4.3,1.58q5.59,0,5.59-7.29t-3.66-11.5A100.14,100.14,0,0,0,306,341a59.08,59.08,0,0,1-12.47-13.46q-4.22-6.62-4.21-17.07,0-24,27-24,11.84,0,19.07,5c4.81,3.32,7.22,8.74,7.22,16.23V314Z" transform="translate(-39.18 -286.4)"/><rect class="cls-2" x="219.83" y="1.89" width="20.53" height="96.17"/><polygon class="cls-1" points="65.43 124.66 0 124.66 0 1.89 19.77 1.89 19.77 107.97 75.56 107.97 65.43 124.66"/></svg>