<?xml version="1.0" encoding="utf-8"?>
<svg xmlns="http://www.w3.org/2000/svg"
	xmlns:xlink="http://www.w3.org/1999/xlink"
	width="32px" height="32px" viewBox="0 0 32 32">
<circle cx="15.50" cy="15.50" r="15.50" fill="rgb(255,255,255)" opacity="0.15"/><path fillRule="evenodd" d="M 22.24 18.25C 22.82 18.82 23.43 19.36 23.95 20 24.17 20.28 24.39 20.57 24.55 20.89 24.79 21.36 24.58 21.87 24.17 21.9 24.17 21.9 21.64 21.9 21.64 21.9 20.99 21.95 20.47 21.68 20.03 21.23 19.68 20.86 19.36 20.47 19.02 20.1 18.88 19.94 18.74 19.8 18.56 19.68 18.22 19.45 17.92 19.52 17.72 19.89 17.52 20.27 17.47 20.68 17.45 21.1 17.43 21.71 17.25 21.87 16.65 21.9 15.37 21.96 14.16 21.76 13.03 21.1 12.04 20.52 11.27 19.7 10.59 18.77 9.29 16.96 8.29 14.97 7.39 12.92 7.19 12.46 7.34 12.22 7.83 12.21 8.66 12.19 9.48 12.19 10.31 12.21 10.64 12.21 10.87 12.41 11 12.73 11.44 13.85 11.99 14.92 12.67 15.91 12.86 16.18 13.04 16.44 13.31 16.63 13.6 16.83 13.82 16.76 13.96 16.43 14.05 16.22 14.09 15.99 14.11 15.76 14.17 14.98 14.18 14.2 14.07 13.42 14 12.94 13.73 12.62 13.26 12.53 13.01 12.48 13.05 12.39 13.17 12.25 13.37 12.01 13.56 11.86 13.94 11.86 13.94 11.86 16.8 11.86 16.8 11.86 17.25 11.95 17.35 12.15 17.41 12.62 17.41 12.62 17.42 15.87 17.42 15.87 17.41 16.04 17.5 16.58 17.82 16.7 18.07 16.78 18.24 16.57 18.39 16.41 19.07 15.67 19.56 14.79 20 13.88 20.19 13.48 20.36 13.06 20.52 12.65 20.64 12.34 20.83 12.19 21.17 12.2 21.17 12.2 23.92 12.2 23.92 12.2 24 12.2 24.08 12.2 24.16 12.21 24.62 12.29 24.75 12.5 24.61 12.96 24.38 13.69 23.94 14.29 23.51 14.9 23.06 15.55 22.57 16.18 22.11 16.83 21.69 17.43 21.73 17.73 22.24 18.25 22.24 18.25 22.24 18.25 22.24 18.25Z" fill="rgb(255,255,255)"/></svg>