<?xml version="1.0" encoding="utf-8"?>
<svg xmlns="http://www.w3.org/2000/svg"
	xmlns:xlink="http://www.w3.org/1999/xlink"
	width="33px" height="32px" viewBox="0 0 33 32">
<circle cx="16.00" cy="16.00" r="16.00" fill="rgb(255,255,255)" opacity="0.15"/><path fillRule="evenodd" d="M 23.81 11.46C 23.22 10.76 22.13 10.48 20.05 10.48 20.05 10.48 12.49 10.48 12.49 10.48 10.36 10.48 9.25 10.78 8.66 11.53 8.09 12.26 8.09 13.33 8.09 14.82 8.09 14.82 8.09 17.65 8.09 17.65 8.09 20.53 8.77 21.99 12.49 21.99 12.49 21.99 20.05 21.99 20.05 21.99 21.85 21.99 22.85 21.73 23.5 21.11 24.16 20.48 24.45 19.44 24.45 17.65 24.45 17.65 24.45 14.82 24.45 14.82 24.45 13.25 24.4 12.17 23.81 11.46ZM 18.59 16.62C 18.59 16.62 15.16 18.42 15.16 18.42 15.08 18.46 15 18.48 14.91 18.48 14.82 18.48 14.73 18.45 14.64 18.4 14.48 18.3 14.39 18.13 14.39 17.95 14.39 17.95 14.39 14.37 14.39 14.37 14.39 14.19 14.48 14.02 14.64 13.92 14.8 13.83 14.99 13.82 15.16 13.9 15.16 13.9 18.59 15.69 18.59 15.69 18.76 15.78 18.87 15.96 18.87 16.15 18.87 16.35 18.76 16.53 18.59 16.62Z" fill="rgb(255,255,255)"/></svg>